<mxfile host="app.diagrams.net" agent="Mozilla/5.0 (Windows NT 10.0; Win64; x64; rv:133.0) Gecko/20100101 Firefox/133.0" version="26.0.2">
  <diagram name="Page-1" id="cxiBW-Hi8_wqYHiND1pR">
    <mxGraphModel dx="1500" dy="649" grid="1" gridSize="10" guides="1" tooltips="1" connect="1" arrows="1" fold="1" page="1" pageScale="1" pageWidth="827" pageHeight="1169" math="0" shadow="0">
      <root>
        <mxCell id="0" />
        <mxCell id="1" parent="0" />
        <mxCell id="XOEDh6kkNM1jTla5hI9O-22" value="" style="rounded=0;whiteSpace=wrap;html=1;fillColor=#e6d0de;strokeColor=#996185;gradientColor=#d5739d;" vertex="1" parent="1">
          <mxGeometry x="200" y="160" width="440" height="1070" as="geometry" />
        </mxCell>
        <mxCell id="XOEDh6kkNM1jTla5hI9O-1" style="rounded=0;orthogonalLoop=1;jettySize=auto;html=1;exitX=0.5;exitY=0.5;exitDx=0;exitDy=0;exitPerimeter=0;entryX=0;entryY=0.5;entryDx=0;entryDy=0;endArrow=none;endFill=0;" edge="1" parent="1" source="XOEDh6kkNM1jTla5hI9O-6" target="XOEDh6kkNM1jTla5hI9O-10">
          <mxGeometry relative="1" as="geometry" />
        </mxCell>
        <mxCell id="XOEDh6kkNM1jTla5hI9O-2" style="rounded=0;orthogonalLoop=1;jettySize=auto;html=1;exitX=0.5;exitY=0.5;exitDx=0;exitDy=0;exitPerimeter=0;entryX=0;entryY=0.5;entryDx=0;entryDy=0;endArrow=none;endFill=0;" edge="1" parent="1" source="XOEDh6kkNM1jTla5hI9O-6" target="XOEDh6kkNM1jTla5hI9O-13">
          <mxGeometry relative="1" as="geometry">
            <mxPoint x="260" y="385" as="targetPoint" />
          </mxGeometry>
        </mxCell>
        <mxCell id="XOEDh6kkNM1jTla5hI9O-3" style="rounded=0;orthogonalLoop=1;jettySize=auto;html=1;exitX=0.5;exitY=0.5;exitDx=0;exitDy=0;exitPerimeter=0;entryX=0;entryY=0.5;entryDx=0;entryDy=0;endArrow=none;endFill=0;" edge="1" parent="1" source="XOEDh6kkNM1jTla5hI9O-6" target="XOEDh6kkNM1jTla5hI9O-9">
          <mxGeometry relative="1" as="geometry" />
        </mxCell>
        <mxCell id="XOEDh6kkNM1jTla5hI9O-4" style="rounded=0;orthogonalLoop=1;jettySize=auto;html=1;exitX=0.5;exitY=0.5;exitDx=0;exitDy=0;exitPerimeter=0;endArrow=none;endFill=0;entryX=0;entryY=0.5;entryDx=0;entryDy=0;" edge="1" parent="1" source="XOEDh6kkNM1jTla5hI9O-6" target="XOEDh6kkNM1jTla5hI9O-11">
          <mxGeometry relative="1" as="geometry">
            <mxPoint x="350" y="765" as="targetPoint" />
          </mxGeometry>
        </mxCell>
        <mxCell id="XOEDh6kkNM1jTla5hI9O-5" style="rounded=0;orthogonalLoop=1;jettySize=auto;html=1;exitX=0.5;exitY=0.5;exitDx=0;exitDy=0;exitPerimeter=0;entryX=0;entryY=0.5;entryDx=0;entryDy=0;endArrow=none;endFill=0;" edge="1" parent="1" source="XOEDh6kkNM1jTla5hI9O-6" target="XOEDh6kkNM1jTla5hI9O-18">
          <mxGeometry relative="1" as="geometry">
            <mxPoint x="260" y="855" as="targetPoint" />
          </mxGeometry>
        </mxCell>
        <mxCell id="XOEDh6kkNM1jTla5hI9O-6" value="Employee" style="shape=umlActor;verticalLabelPosition=bottom;verticalAlign=top;html=1;" vertex="1" parent="1">
          <mxGeometry x="50" y="525" width="30" height="60" as="geometry" />
        </mxCell>
        <mxCell id="XOEDh6kkNM1jTla5hI9O-7" style="edgeStyle=orthogonalEdgeStyle;rounded=0;orthogonalLoop=1;jettySize=auto;html=1;exitX=0.5;exitY=0;exitDx=0;exitDy=0;entryX=0.5;entryY=1;entryDx=0;entryDy=0;dashed=1;" edge="1" parent="1" source="XOEDh6kkNM1jTla5hI9O-9" target="XOEDh6kkNM1jTla5hI9O-10">
          <mxGeometry relative="1" as="geometry" />
        </mxCell>
        <mxCell id="XOEDh6kkNM1jTla5hI9O-8" value="extend" style="edgeLabel;html=1;align=center;verticalAlign=middle;resizable=0;points=[];" vertex="1" connectable="0" parent="XOEDh6kkNM1jTla5hI9O-7">
          <mxGeometry x="-0.0926" relative="1" as="geometry">
            <mxPoint x="20" y="4" as="offset" />
          </mxGeometry>
        </mxCell>
        <mxCell id="XOEDh6kkNM1jTla5hI9O-9" value="views filtered List" style="ellipse;whiteSpace=wrap;html=1;fillColor=#d0cee2;strokeColor=#56517e;" vertex="1" parent="1">
          <mxGeometry x="260" y="260" width="140" height="70" as="geometry" />
        </mxCell>
        <mxCell id="XOEDh6kkNM1jTla5hI9O-10" value="Views List of Events" style="ellipse;whiteSpace=wrap;html=1;fillColor=#d0cee2;strokeColor=#56517e;" vertex="1" parent="1">
          <mxGeometry x="260" y="170" width="140" height="70" as="geometry" />
        </mxCell>
        <mxCell id="XOEDh6kkNM1jTla5hI9O-26" style="edgeStyle=orthogonalEdgeStyle;rounded=0;orthogonalLoop=1;jettySize=auto;html=1;exitX=0.5;exitY=1;exitDx=0;exitDy=0;entryX=0.5;entryY=0;entryDx=0;entryDy=0;endArrow=none;endFill=0;" edge="1" parent="1" source="XOEDh6kkNM1jTla5hI9O-11" target="XOEDh6kkNM1jTla5hI9O-20">
          <mxGeometry relative="1" as="geometry" />
        </mxCell>
        <mxCell id="XOEDh6kkNM1jTla5hI9O-11" value="Selects an Event" style="ellipse;whiteSpace=wrap;html=1;fillColor=#d0cee2;strokeColor=#56517e;" vertex="1" parent="1">
          <mxGeometry x="260" y="360" width="140" height="70" as="geometry" />
        </mxCell>
        <mxCell id="XOEDh6kkNM1jTla5hI9O-12" value="&lt;div&gt;exit&lt;/div&gt;&lt;div&gt;process&lt;br&gt;&lt;/div&gt;" style="text;html=1;align=center;verticalAlign=middle;whiteSpace=wrap;rounded=0;" vertex="1" parent="1">
          <mxGeometry x="414" y="430" width="30" height="10" as="geometry" />
        </mxCell>
        <mxCell id="XOEDh6kkNM1jTla5hI9O-29" style="edgeStyle=orthogonalEdgeStyle;rounded=0;orthogonalLoop=1;jettySize=auto;html=1;exitX=0.5;exitY=1;exitDx=0;exitDy=0;entryX=0.5;entryY=0;entryDx=0;entryDy=0;" edge="1" parent="1" source="XOEDh6kkNM1jTla5hI9O-13" target="XOEDh6kkNM1jTla5hI9O-21">
          <mxGeometry relative="1" as="geometry" />
        </mxCell>
        <mxCell id="XOEDh6kkNM1jTla5hI9O-13" value="puts details(full name, email)" style="ellipse;whiteSpace=wrap;html=1;fillColor=#d0cee2;strokeColor=#56517e;" vertex="1" parent="1">
          <mxGeometry x="260" y="630" width="140" height="70" as="geometry" />
        </mxCell>
        <mxCell id="XOEDh6kkNM1jTla5hI9O-16" style="rounded=0;orthogonalLoop=1;jettySize=auto;html=1;entryX=0.5;entryY=0;entryDx=0;entryDy=0;dashed=1;exitX=0.5;exitY=1;exitDx=0;exitDy=0;" edge="1" parent="1" source="XOEDh6kkNM1jTla5hI9O-9" target="XOEDh6kkNM1jTla5hI9O-11">
          <mxGeometry relative="1" as="geometry">
            <mxPoint x="414" y="393.88777777777767" as="sourcePoint" />
            <mxPoint x="330" y="350" as="targetPoint" />
          </mxGeometry>
        </mxCell>
        <mxCell id="XOEDh6kkNM1jTla5hI9O-17" style="edgeStyle=orthogonalEdgeStyle;rounded=0;orthogonalLoop=1;jettySize=auto;html=1;exitX=1;exitY=0.5;exitDx=0;exitDy=0;entryX=1;entryY=0.5;entryDx=0;entryDy=0;dashed=1;" edge="1" parent="1" source="XOEDh6kkNM1jTla5hI9O-18" target="XOEDh6kkNM1jTla5hI9O-9">
          <mxGeometry relative="1" as="geometry">
            <mxPoint x="400" y="385" as="targetPoint" />
          </mxGeometry>
        </mxCell>
        <mxCell id="XOEDh6kkNM1jTla5hI9O-28" style="edgeStyle=orthogonalEdgeStyle;rounded=0;orthogonalLoop=1;jettySize=auto;html=1;exitX=0.5;exitY=1;exitDx=0;exitDy=0;entryX=0.5;entryY=0;entryDx=0;entryDy=0;" edge="1" parent="1" source="XOEDh6kkNM1jTla5hI9O-18" target="XOEDh6kkNM1jTla5hI9O-13">
          <mxGeometry relative="1" as="geometry" />
        </mxCell>
        <mxCell id="XOEDh6kkNM1jTla5hI9O-18" value="decides whether to make a reservation" style="ellipse;whiteSpace=wrap;html=1;fillColor=#d0cee2;strokeColor=#56517e;" vertex="1" parent="1">
          <mxGeometry x="260" y="540" width="140" height="70" as="geometry" />
        </mxCell>
        <mxCell id="XOEDh6kkNM1jTla5hI9O-25" style="edgeStyle=orthogonalEdgeStyle;rounded=0;orthogonalLoop=1;jettySize=auto;html=1;exitX=1;exitY=0.5;exitDx=0;exitDy=0;entryX=1;entryY=0.5;entryDx=0;entryDy=0;dashed=1;" edge="1" parent="1" source="XOEDh6kkNM1jTla5hI9O-20" target="XOEDh6kkNM1jTla5hI9O-9">
          <mxGeometry relative="1" as="geometry" />
        </mxCell>
        <mxCell id="XOEDh6kkNM1jTla5hI9O-27" style="edgeStyle=orthogonalEdgeStyle;rounded=0;orthogonalLoop=1;jettySize=auto;html=1;exitX=0.5;exitY=1;exitDx=0;exitDy=0;entryX=0.5;entryY=0;entryDx=0;entryDy=0;endArrow=none;endFill=0;" edge="1" parent="1" source="XOEDh6kkNM1jTla5hI9O-20" target="XOEDh6kkNM1jTla5hI9O-18">
          <mxGeometry relative="1" as="geometry" />
        </mxCell>
        <mxCell id="XOEDh6kkNM1jTla5hI9O-20" value="System checks and shows whether there are tickets" style="ellipse;whiteSpace=wrap;html=1;fillColor=#d0cee2;strokeColor=#56517e;" vertex="1" parent="1">
          <mxGeometry x="260" y="450" width="140" height="70" as="geometry" />
        </mxCell>
        <mxCell id="XOEDh6kkNM1jTla5hI9O-21" value="&lt;div&gt;System puts the rest info(Event title) &amp;amp; &lt;br&gt;&lt;/div&gt;&lt;div&gt;capacity--&lt;/div&gt;&lt;div&gt;visitorcount++&lt;br&gt;&lt;/div&gt;" style="ellipse;whiteSpace=wrap;html=1;fillColor=#d0cee2;strokeColor=#56517e;" vertex="1" parent="1">
          <mxGeometry x="260" y="720" width="140" height="100" as="geometry" />
        </mxCell>
        <mxCell id="XOEDh6kkNM1jTla5hI9O-31" value="Reservation is saved on Reservation List" style="ellipse;whiteSpace=wrap;html=1;fillColor=#d0cee2;strokeColor=#56517e;" vertex="1" parent="1">
          <mxGeometry x="260" y="840" width="140" height="70" as="geometry" />
        </mxCell>
        <mxCell id="XOEDh6kkNM1jTla5hI9O-32" value="&lt;div&gt;views Reservation List&lt;/div&gt;&lt;div&gt;(only their reservations)&lt;br&gt;&lt;/div&gt;" style="ellipse;whiteSpace=wrap;html=1;fillColor=#d0cee2;strokeColor=#56517e;" vertex="1" parent="1">
          <mxGeometry x="260" y="930" width="140" height="70" as="geometry" />
        </mxCell>
        <mxCell id="XOEDh6kkNM1jTla5hI9O-33" style="rounded=0;orthogonalLoop=1;jettySize=auto;html=1;exitX=0.5;exitY=0.5;exitDx=0;exitDy=0;exitPerimeter=0;entryX=0;entryY=0.5;entryDx=0;entryDy=0;endArrow=none;endFill=0;" edge="1" parent="1" source="XOEDh6kkNM1jTla5hI9O-6" target="XOEDh6kkNM1jTla5hI9O-32">
          <mxGeometry relative="1" as="geometry">
            <mxPoint x="261" y="870" as="targetPoint" />
          </mxGeometry>
        </mxCell>
      </root>
    </mxGraphModel>
  </diagram>
</mxfile>
